# xmcd
# Track frame offsets:
# 150
# 24190
# 49987
# 65426
# 88604
# 110837
# 131891
# 157665
# 179916
# 213513
#
# Disc length: 3215 seconds
# Revision: 0
# Processed by: cddbd v1.5.2PL0 Copyright (c) Steve Scherf et al.
# Submitted via: VisiTrax 2.10.3.257 - For more info visit www.synapsa.com
#
DISCID=8e0c8d0a
DTITLE=Willie Nelson and Wynton Marsalis - Two Men With The Blues
DYEAR=2008
DGENRE=Blues
TTITLE0=Bright Lights, Big City
TTITLE1=Night Life
TTITLE2=Caldonia
TTITLE3=Stardust
TTITLE4=Basin Street Blues
TTITLE5=Georgia On My Mind
TTITLE6=Rainy Day Blues
TTITLE7=My Bucket's Got A Hole In It
TTITLE8=Ain't Nobody's Business
TTITLE9=That's All
EXTD=
EXTT0=
EXTT1=
EXTT2=
EXTT3=
EXTT4=
EXTT5=
EXTT6=
EXTT7=
EXTT8=
EXTT9=
PLAYORDER=
